# xmcd CD database file generated by OrangeCD 6.1
#
# Track frame offsets:
#	150
#	20162
#	41112
#	57455
#	76022
#	91205
#	104042
#	122007
#	139027
#	154587
#	171942
#	187797
#	202595
#	220045
#	237332
#	266565
#	284180
#	298520
#	316232
#	330932
#
# Disc length: 4765 seconds
#
# Revision: 4
# Processed by: cddbd v1.5.2PL0 Copyright (c) Steve Scherf et al.
# Submitted via: OrangeCD 6.1
#
DISCID=1c129b14
DTITLE=Various Artist - And They Danced The Night Away [CD 2)
DYEAR=1996
DGENRE=R&B
TTITLE0=Shakatak - Night Birds
TTITLE1=Ollie And Jerry - Breakin'... There's No Stopping Us
TTITLE2=Gene Chandler - Get Down
TTITLE3=Yarborough and Peoples - Don't Stop The Music
TTITLE4=Johnny Bristol - Hang On In There Baby
TTITLE5=James Brown - (Get Up I Feel Like Being A ) Sex Machine
TTITLE6=Lipps Inc - Funky Town
TTITLE7=Donna Summer - I Feel Love
TTITLE8=The Gap Band - Oops Upside Your Head
TTITLE9=David Joseph - You Can't Hide (Your Love From Me)
TTITLE10=Barry White - Let The Music Play
TTITLE11=Gloria Gaynor - I Will Survive
TTITLE12=Third World - Now That We've Found Love
TTITLE13=Womack and Womack - Teardrops
TTITLE14=Terri De Sario - Ain't Nothing Gonna Keep Me From You
TTITLE15=Con Funk Shun - Burning Love
TTITLE16=Voggue - Dancin' The Night Away
TTITLE17=Peches and Herb - Shake Your Groove Thing
TTITLE18=Leif Garrett - I Was Made For Dancing
TTITLE19=LA Mix - Check This Out
EXTD=Year 1975-88
EXTT0=
EXTT1=
EXTT2=
EXTT3=
EXTT4=
EXTT5=
EXTT6=
EXTT7=
EXTT8=
EXTT9=
EXTT10=
EXTT11=
EXTT12=
EXTT13=
EXTT14=
EXTT15=
EXTT16=
EXTT17=
EXTT18=
EXTT19=
PLAYORDER=
